Coordinates
version=1
nRows=4
nColumns=63
inDegrees=yes

Units are S.I. units (second, meters, Newtons, ...)
If the header above contains a line with 'inDegrees', this indicates whether rotational values are in degrees (yes) or radians (no).

endheader
time	pelvis_tilt	pelvis_list	pelvis_rotation	pelvis_tx	pelvis_ty	pelvis_tz	hip_flexion_r	hip_adduction_r	hip_rotation_r	knee_angle_r	knee_angle_r_beta	ankle_angle_r	subtalar_angle_r	mtp_angle_r	hip_flexion_l	hip_adduction_l	hip_rotation_l	knee_angle_l	knee_angle_l_beta	ankle_angle_l	subtalar_angle_l	mtp_angle_l	L5_S1_Flex_Ext	L5_S1_Lat_Bending	L5_S1_axial_rotation	L4_L5_Flex_Ext	L4_L5_Lat_Bending	L4_L5_axial_rotation	L3_L4_Flex_Ext	L3_L4_Lat_Bending	L3_L4_axial_rotation	L2_L3_Flex_Ext	L2_L3_Lat_Bending	L2_L3_axial_rotation	L1_L2_Flex_Ext	L1_L2_Lat_Bending	L1_L2_axial_rotation	L1_T12_Flex_Ext	L1_T12_Lat_Bending	L1_T12_axial_rotation	Abs_r3	Abs_r2	Abs_r1	Abs_t1	Abs_t2	neck_flexion	neck_bending	neck_rotation	arm_flex_r	arm_add_r	arm_rot_r	elbow_flex_r	pro_sup_r	wrist_flex_r	wrist_dev_r	arm_flex_l	arm_add_l	arm_rot_l	elbow_flex_l	pro_sup_l	wrist_flex_l	wrist_dev_l
      1.15000000	     -5.44582337	    -10.52478605	     65.47878014	      0.20431159	      0.97982599	      0.46472350	     10.63516380	      1.06390834	     12.66792836	      8.16290016	      0.14246948	     16.21983604	    -16.11181305	      0.00000000	      6.58533160	     -0.97627857	      5.18911996	      1.04256528	      0.01819620	     23.61586019	     -9.56398377	      0.00000000	      0.14599124	      0.45693535	      2.00643989	      0.27112034	      0.60772402	      2.13184238	      0.23984901	      1.11099262	      2.13184238	      0.16685339	      1.11099262	      1.75563490	      0.13556747	      0.93178257	      1.63023241	      0.08341940	      0.70779286	      1.50482991	      1.04280084	      5.16894411	     11.15921672	      0.00000000	      0.00000000	     28.19695112	     -5.34286736	      1.01812737	      9.99712939	    -17.20464171	     58.69939708	     20.61471386	     48.86075103	     -4.69288384	      0.10485433	     19.80842008	     -5.23212672	     69.77397531	     21.48916072	     73.67858005	     -6.62767579	      3.90179639
      1.16666667	     -5.45746758	    -10.56473818	     65.60488195	      0.20342395	      0.97970198	      0.46557963	     10.74770366	      1.01017977	     12.72588833	      8.12263566	      0.14176674	     16.36962277	    -16.12721535	      0.00000000	      6.73603366	     -0.92828514	      5.16743952	      1.14492937	      0.01998279	     23.29655457	     -9.46892672	      0.00000000	      0.11520737	      0.46444420	      2.02707691	      0.21395160	      0.61771079	      2.15376922	      0.18927418	      1.12924963	      2.15376922	      0.13167050	      1.12924963	      1.77369230	      0.10698156	      0.94709461	      1.64699999	      0.06582949	      0.71942407	      1.52030768	      0.82291471	      5.25388568	     11.27399365	      0.00000000	      0.00000000	     28.18368792	     -5.24465044	      1.07802914	      9.95406955	    -17.93280295	     58.62261830	     20.41279161	     48.95196644	     -4.62465504	      0.19990947	     19.68085067	     -5.39341511	     69.74561230	     21.21316475	     73.54780960	     -6.67035224	      3.90171858
      1.18333333	     -4.84361012	    -10.75119288	     65.49636204	      0.20135438	      0.98001803	      0.46560330	     10.71882324	      1.52605065	     12.87613000	      8.07522756	      0.14093931	     16.20511240	    -15.87015409	      0.00000000	      6.77720186	     -1.46347679	      3.30573354	      1.38946960	      0.02425082	     23.66096047	     -7.33270886	      0.00000000	      0.08603646	      0.59289866	      2.25670182	      0.15977832	      0.78855521	      2.39774569	      0.14134931	      1.44157380	      2.39774569	      0.09833107	      1.44157380	      1.97461410	      0.07989346	      1.20903894	      1.83357023	      0.04916124	      0.91840002	      1.69252637	      0.61454986	      6.70698819	     12.55109853	      0.00000000	      0.00000000	     28.18560334	     -5.94924189	      2.07906619	      5.35364298	    -18.68566340	     32.26928538	     24.70788796	     76.72355580	     -2.24346597	      6.23280814	     24.51394256	      0.62968636	    138.69646596	      9.64665047	      7.22201856	     -2.59837805	     -7.47678744
      1.20000000	     -4.92868135	    -10.73197908	     65.14280368	      0.20150070	      0.97952138	      0.46634833	     10.87542773	      1.48952719	     13.42540063	      8.24218857	      0.14385333	     16.56417212	    -15.77602379	      0.00000000	      6.79378956	     -1.39379129	      2.93310869	      1.45098604	      0.02532448	     23.41629897	     -7.50067849	      0.00000000	      0.07111866	      0.58862042	      2.31588806	      0.13207446	      0.78286516	      2.46063106	      0.11684084	      1.43117169	      2.46063106	      0.08128151	      1.43117169	      2.02640205	      0.06604078	      1.20031477	      1.88165905	      0.04063720	      0.91177303	      1.73691604	      0.50799345	      6.65859194	     12.88027462	      0.00000000	      0.00000000	     28.19012928	     -5.90158645	      2.35149581	      5.12372944	    -19.37015640	     32.64693659	     24.96936968	     79.12824133	     -2.54889721	      5.96226810	     24.27451535	      0.09750981	    137.43140669	     10.25850794	      6.43074709	     -4.38030106	     -8.46873570
